<svg xmlns="http://www.w3.org/2000/svg" width="662" height="405" viewBox="0 0 662 405">
<g>
<path d="M 466.84 227.91 C466.13,226.28 465.43,224.69 464.76,223.14 C458.43,208.64 452.76,196.47 452.16,196.10 C451.56,195.73 449.22,191.39 446.97,186.46 C444.72,181.53 441.06,173.84 438.83,169.37 L 434.80 161.25 L 430.40 161.16 C425.42,161.06 424.24,160.53 414.50,154.06 C410.65,151.50 404.80,148.34 401.50,147.04 C398.20,145.74 394.83,144.12 394.00,143.44 C393.17,142.76 390.92,141.55 388.99,140.75 C387.06,139.95 383.21,136.82 380.44,133.80 C374.76,127.58 370.16,124.43 371.44,127.63 C371.85,128.66 372.84,131.98 373.64,135.00 C374.44,138.02 376.41,143.43 378.03,147.00 C381.51,154.71 386.71,168.88 388.11,174.50 C388.44,175.82 389.63,179.14 391.18,183.15 C389.78,179.79 388.34,176.47 387.00,173.50 C386.00,171.30 382.00,161.85 378.10,152.50 C374.20,143.15 370.43,134.38 369.72,133.00 L 368.42 130.50 L 341.21 130.23 C326.06,130.09 314.00,129.57 314.00,129.07 C314.00,126.72 340.68,66.95 342.60,65.00 C343.83,63.74 348.28,63.50 370.07,63.50 C392.10,63.50 396.22,63.73 397.01,65.00 C397.52,65.82 400.73,73.25 404.14,81.50 C407.54,89.75 414.57,106.40 419.76,118.50 C424.94,130.60 433.59,150.85 438.98,163.50 C445.10,177.85 455.82,202.62 466.84,227.91 ZM 528.01 258.16 C528.35,230.61 528.16,222.23 527.23,220.46 C526.15,218.41 515.37,212.29 514.46,213.21 C514.30,213.37 512.58,217.00 510.63,221.27 L 508.17 226.67 C509.15,214.84 511.30,211.14 516.54,203.50 C518.99,199.91 521.00,196.64 521.00,196.22 C521.00,195.80 519.71,193.89 518.14,191.98 C514.83,187.96 510.79,180.27 508.95,174.50 C508.05,171.67 507.50,158.53 507.09,129.50 C506.52,89.59 506.44,88.39 504.27,84.33 C501.75,79.61 497.50,76.20 493.33,75.53 C491.78,75.29 488.88,74.83 486.89,74.52 L 483.29 73.96 L 482.70 66.91 C482.37,63.03 482.54,58.71 483.07,57.32 C484.00,54.88 484.26,54.80 489.73,55.49 C507.86,57.75 519.08,65.91 525.38,81.41 C527.33,86.20 527.49,88.99 527.98,128.50 C528.46,167.17 528.65,170.78 530.39,174.00 C534.16,181.00 538.11,184.93 544.56,188.10 L 551.00 191.27 L 551.00 201.90 L 544.55 204.98 C537.94,208.13 533.49,212.48 530.26,218.96 C528.79,221.92 528.47,226.52 528.01,258.16 ZM 316.97 127.98 C320.00,129.85 356.59,128.48 360.19,126.36 C361.55,125.56 358.81,120.00 357.06,120.00 C356.10,120.00 352.65,118.31 349.41,116.25 C346.16,114.18 342.16,111.82 340.53,111.00 C338.90,110.17 335.83,107.78 333.71,105.68 C330.51,102.50 329.61,102.07 328.36,103.12 C325.47,105.51 315.58,127.12 316.97,127.98 ZM 157.10 167.69 C157.60,162.07 157.99,145.02 157.99,127.43 C158.00,93.02 158.05,92.19 160.47,84.09 L 162.95 75.83 L 160.34 70.66 C157.46,64.95 156.50,64.04 153.37,64.02 C152.37,64.01 151.12,64.69 149.74,65.88 C155.44,60.58 162.70,57.18 171.31,55.84 C181.90,54.19 182.00,54.27 182.00,64.50 C182.00,70.47 181.62,73.19 180.75,73.47 C180.06,73.70 176.80,74.41 173.50,75.06 C168.66,76.00 166.80,76.96 163.90,80.00 C158.37,85.79 158.00,88.66 157.99,127.43 C157.99,127.51 157.99,127.60 157.99,127.69 C157.99,145.12 157.60,162.09 157.10,167.69 ZM 274.93 150.15 C273.12,147.95 272.00,145.19 272.00,142.50 C272.00,139.63 272.76,138.04 275.40,135.40 C281.19,129.61 289.56,131.05 293.77,138.56 C294.80,140.38 296.18,140.51 316.68,140.62 C360.51,140.85 361.00,140.87 361.00,142.48 C361.00,143.29 359.87,144.69 358.50,145.59 C356.28,147.04 352.48,147.19 325.57,146.87 L 295.15 146.50 L 291.82 150.26 C291.24,150.92 290.66,151.50 290.07,152.01 C290.69,151.22 291.24,150.25 291.68,149.13 L 293.20 145.27 L 311.35 145.77 C325.72,146.16 330.40,145.95 333.84,144.78 L 338.18 143.31 L 329.84 142.66 C325.25,142.30 314.85,142.01 306.72,142.01 C293.55,142.00 291.87,141.81 291.32,140.25 C290.98,139.29 289.56,137.26 288.17,135.75 C284.75,132.05 281.02,132.17 276.53,136.10 C273.55,138.73 273.00,139.86 273.00,143.38 C273.00,146.12 273.64,148.37 274.93,150.15 ZM 190.78 91.25 C191.58,86.44 192.75,84.40 194.45,81.49 C197.30,76.63 201.40,72.89 207.38,69.72 C210.99,67.80 213.41,67.49 226.88,67.17 C238.97,66.89 242.45,67.10 243.12,68.16 C243.59,68.90 243.98,116.40 243.98,173.73 L 244.00 273.78 L 243.56 191.23 C243.30,143.53 242.74,96.40 242.30,86.50 L 241.50 68.50 L 227.97 68.50 C214.73,68.50 214.31,68.57 207.84,71.76 C200.85,75.20 198.46,77.72 192.91,87.50 L 190.78 91.25 ZM 189.08 239.67 C189.06,228.26 189.05,214.69 189.05,198.50 C189.04,153.42 189.04,127.19 189.45,111.24 L 189.19 194.50 C189.14,212.23 189.09,227.12 189.08,239.67 ZM 287.00 148.00 C291.28,143.72 288.18,136.51 282.35,137.18 C282.11,137.20 281.87,137.25 281.65,137.30 C284.00,136.60 286.91,137.27 288.92,139.41 C291.02,141.65 291.14,142.24 290.07,144.83 C289.41,146.43 287.75,148.25 286.39,148.87 C286.18,148.96 285.98,149.05 285.79,149.14 C286.13,148.85 286.52,148.48 287.00,148.00 ZM 214.33 329.96 C207.84,328.67 202.75,326.01 198.87,321.77 C202.85,325.82 208.31,328.77 214.33,329.96 ZM 147.19 68.50 C143.94,72.32 140.56,78.03 138.69,83.47 C140.71,77.61 143.56,72.60 147.19,68.50 ZM 190.40 302.79 C189.85,299.57 189.53,294.92 189.34,283.62 C189.54,292.58 189.87,298.52 190.40,302.79 ZM 506.79 288.66 C506.59,297.98 506.28,303.98 505.88,305.44 C505.41,307.20 504.63,308.84 503.61,310.33 C504.63,308.85 505.39,307.21 505.85,305.46 C506.19,304.17 506.52,297.91 506.79,288.66 ZM 395.44 193.73 C398.07,200.22 399.98,205.86 399.82,206.72 C399.96,205.96 398.08,200.54 395.44,193.73 ZM 278.89 139.13 C277.49,140.95 277.18,143.69 278.12,145.88 C277.25,144.21 277.25,142.24 278.25,140.16 C278.43,139.78 278.64,139.44 278.89,139.13 ZM 284.10 149.83 C283.88,149.91 283.74,149.95 283.70,149.94 C283.01,149.72 282.37,149.47 281.78,149.18 C282.82,149.59 283.52,149.81 284.10,149.83 ZM 279.40 153.61 C278.96,153.42 278.54,153.19 278.14,152.95 C278.53,153.17 278.94,153.37 279.38,153.56 C279.85,153.77 280.27,153.95 280.66,154.10 C280.25,153.97 279.82,153.80 279.40,153.61 Z" fill="rgba(30,192,212,1)"/>
<path d="M 482.60 263.94 C481.29,261.07 480.22,258.87 479.91,258.55 C479.41,258.03 477.07,257.72 474.71,257.86 C471.70,258.05 469.70,257.55 467.96,256.20 C466.61,255.14 464.38,253.93 463.00,253.50 C461.62,253.07 459.55,251.77 458.39,250.61 C455.68,247.89 451.80,245.00 450.87,245.00 C450.47,245.00 446.74,243.43 442.57,241.50 C438.40,239.57 434.69,238.00 434.32,238.00 C432.11,238.00 420.29,232.42 419.20,230.87 C418.48,229.84 416.84,229.00 415.57,229.00 C414.29,229.00 412.67,228.30 411.96,227.45 C411.25,226.60 408.16,224.73 405.09,223.29 C402.01,221.85 399.15,220.09 398.73,219.39 C396.41,215.52 395.13,215.05 391.34,216.63 C389.34,217.47 387.08,218.77 386.32,219.54 C385.56,220.30 383.49,221.36 381.72,221.90 C376.06,223.62 372.58,225.05 367.66,227.84 C370.48,226.16 374.01,224.00 378.49,221.26 C390.65,213.83 399.62,207.71 399.82,206.72 C400.00,205.78 397.66,199.04 394.63,191.75 C391.60,184.46 388.66,176.70 388.11,174.50 C386.71,168.88 381.51,154.71 378.03,147.00 C376.41,143.43 374.44,138.02 373.64,135.00 C372.84,131.98 371.85,128.66 371.44,127.63 C370.16,124.43 374.76,127.58 380.44,133.80 C383.21,136.82 387.06,139.95 388.99,140.75 C390.92,141.55 393.17,142.76 394.00,143.44 C394.83,144.12 398.20,145.74 401.50,147.04 C404.80,148.34 410.65,151.50 414.50,154.06 C424.24,160.53 425.42,161.06 430.40,161.16 L 434.80 161.25 L 438.83 169.37 C441.06,173.84 444.72,181.53 446.97,186.46 C449.22,191.39 451.56,195.73 452.16,196.10 C452.76,196.47 458.43,208.64 464.76,223.14 C470.94,237.31 478.86,255.43 482.60,263.94 ZM 189.40 126.46 L 189.50 93.50 L 192.91 87.50 C198.46,77.72 200.85,75.20 207.84,71.76 C214.31,68.57 214.73,68.50 227.97,68.50 L 241.50 68.50 L 242.30 86.50 C242.74,96.40 243.30,143.53 243.56,191.23 L 243.94 261.99 L 243.64 226.74 C243.05,155.58 241.43,119.00 238.87,119.00 C238.39,119.00 238.00,118.32 238.00,117.50 C238.00,116.68 237.37,116.00 236.61,116.00 C235.84,116.00 232.96,113.97 230.21,111.50 C227.11,108.72 224.26,107.00 222.72,107.00 C221.13,107.00 220.06,106.32 219.74,105.13 C219.22,103.14 214.71,102.56 201.24,102.77 C192.96,102.90 192.04,103.91 191.84,113.18 L 191.67 120.50 L 191.09 115.00 C190.25,107.13 189.71,109.73 189.40,126.46 ZM 486.50 318.98 C487.87,318.67 489.67,318.30 491.49,317.94 C498.67,316.52 504.19,311.73 505.88,305.44 C506.55,302.97 506.98,287.66 507.02,265.25 L 507.09 229.04 L 510.63 221.27 C512.58,217.00 514.30,213.37 514.46,213.21 C515.37,212.29 526.15,218.41 527.23,220.46 C528.23,222.36 528.38,231.90 527.93,264.69 C527.42,301.93 527.15,307.05 525.51,311.50 C525.18,312.42 524.82,313.31 524.44,314.18 C524.52,313.95 524.60,313.73 524.67,313.50 C525.54,310.90 525.32,310.17 523.05,307.89 C521.61,306.45 518.15,304.61 515.35,303.79 L 510.28 302.30 L 505.47 308.24 C499.46,315.67 497.90,316.68 489.94,318.28 L 486.50 318.98 ZM 157.96 136.02 C157.90,128.13 157.64,122.00 157.17,122.00 C156.71,122.00 155.70,120.81 154.92,119.35 C154.01,117.64 151.23,115.67 147.16,113.85 C143.07,112.01 140.64,110.53 139.19,111.20 C138.10,111.69 137.56,113.35 137.26,116.93 C137.63,98.06 138.17,84.98 138.69,83.47 C141.91,74.13 149.56,63.99 153.37,64.02 C156.50,64.04 157.46,64.95 160.34,70.66 L 162.95 75.83 L 160.47 84.09 C158.05,92.19 158.00,93.02 157.99,127.43 C157.99,130.32 157.98,133.20 157.96,136.02 ZM 316.97 127.98 C315.58,127.12 325.47,105.51 328.36,103.12 C329.61,102.07 330.51,102.50 333.71,105.68 C335.83,107.78 338.90,110.17 340.53,111.00 C342.16,111.82 346.16,114.18 349.41,116.25 C352.65,118.31 356.10,120.00 357.06,120.00 C358.81,120.00 361.55,125.56 360.19,126.36 C356.59,128.48 320.00,129.85 316.97,127.98 ZM 279.38 153.56 C275.11,151.70 273.00,148.34 273.00,143.38 C273.00,139.86 273.55,138.73 276.53,136.10 C281.02,132.17 284.75,132.05 288.17,135.75 C289.56,137.26 290.98,139.29 291.32,140.25 C291.87,141.81 293.55,142.00 306.72,142.01 C314.85,142.01 325.25,142.30 329.84,142.66 L 338.18 143.31 L 333.84 144.78 C330.40,145.95 325.72,146.16 311.35,145.77 L 293.20 145.27 L 291.68 149.13 C290.71,151.60 289.21,153.35 287.52,153.99 C284.15,155.27 283.20,155.22 279.38,153.56 ZM 311.88 162.07 C298.28,161.50 298.27,161.50 299.10,159.25 L 299.94 157.00 L 326.47 157.00 C352.47,157.00 353.00,157.04 353.00,159.03 C353.00,160.15 352.44,161.24 351.75,161.46 C349.21,162.26 325.08,162.63 311.88,162.07 ZM 285.61 179.00 L 300.00 178.01 C328.88,176.02 329.77,175.51 305.74,174.69 L 283.97 173.94 L 280.30 170.38 C273.51,163.78 267.81,163.17 263.10,168.53 C267.68,163.32 273.13,163.76 279.93,169.90 L 283.36 173.00 L 314.68 173.00 C341.16,173.00 346.00,173.22 346.00,174.43 C346.00,175.21 345.29,176.56 344.43,177.43 C343.07,178.79 338.79,179.00 312.80,179.00 L 285.61 179.00 ZM 286.39 148.87 C287.75,148.25 289.41,146.43 290.07,144.83 C291.14,142.24 291.02,141.65 288.92,139.41 C285.66,135.94 280.07,136.33 278.25,140.16 C276.21,144.44 278.34,148.26 283.70,149.94 C283.81,149.97 285.02,149.49 286.39,148.87 ZM 331.26 206.07 C331.62,205.12 331.77,204.44 331.62,204.29 C331.37,204.03 332.23,200.96 333.55,197.46 C335.28,192.88 335.63,190.89 334.80,190.38 C334.17,189.98 323.22,189.48 310.48,189.25 L 301.60 189.09 L 312.60 189.09 C326.57,189.10 338.00,189.25 338.00,189.43 C338.00,190.58 334.51,199.22 331.40,205.76 C331.35,205.86 331.31,205.96 331.26,206.07 ZM 356.73 258.47 C367.33,258.26 384.46,258.03 397.50,257.93 C422.62,257.75 424.49,257.86 424.34,259.48 C424.26,260.40 429.22,273.16 435.51,288.20 C427.77,270.05 423.13,259.87 422.21,259.16 C420.82,258.07 412.49,257.90 377.67,258.27 C369.23,258.36 362.33,258.44 356.73,258.47 ZM 486.43 293.47 C488.74,289.04 488.93,287.88 488.16,283.77 C487.66,281.14 487.65,279.28 488.13,279.58 C488.36,279.72 488.57,279.78 488.73,279.76 C490.09,285.23 489.16,288.28 486.50,293.34 C486.48,293.38 486.46,293.42 486.43,293.47 ZM 198.87 321.77 C197.23,320.11 195.84,318.25 194.77,316.25 C194.11,315.03 193.53,313.95 193.01,312.83 C191.84,310.30 191.00,307.61 190.41,302.84 C190.55,303.67 190.71,304.41 190.88,305.16 C192.57,312.25 195.17,317.73 198.87,321.77 ZM 483.67 337.33 C482.72,336.39 482.76,327.34 483.39,322.51 L 483.21 327.45 C483.04,331.78 483.14,335.93 483.42,336.66 C483.77,337.56 485.49,337.97 487.95,337.96 C485.73,338.02 484.15,337.82 483.67,337.33 ZM 364.12 229.93 C357.55,233.89 356.62,234.17 352.37,233.53 C351.05,233.34 349.69,233.09 348.58,232.86 C349.78,233.09 351.29,233.33 352.74,233.51 C355.95,233.90 357.11,233.96 364.12,229.93 ZM 136.58 157.72 C136.34,169.32 135.92,171.44 134.58,174.07 C135.79,171.69 136.26,169.59 136.58,157.72 ZM 320.12 230.82 C321.47,227.75 322.97,224.32 324.63,220.50 C326.22,216.83 328.19,212.51 329.44,209.94 C327.69,213.73 325.73,218.06 324.44,221.00 C322.84,224.65 321.41,227.91 320.12,230.82 ZM 505.42 334.08 C502.53,335.38 499.40,336.36 496.04,336.99 C495.62,337.07 495.20,337.15 494.79,337.22 C498.33,336.55 502.16,335.47 505.42,334.08 ZM 189.25 278.82 C189.12,270.65 189.07,260.31 189.07,247.08 C189.10,260.89 189.15,271.12 189.25,278.82 ZM 518.60 323.93 C516.51,326.50 514.14,328.74 511.49,330.61 C514.07,328.74 516.50,326.44 518.60,323.93 ZM 454.99 331.00 C455.75,331.00 462.52,323.42 469.58,315.03 C462.52,323.44 455.79,331.00 454.99,331.00 ZM 336.38 252.17 C335.19,253.90 334.35,255.19 334.13,256.15 C334.15,255.22 335.17,253.93 336.38,252.17 ZM 308.32 255.77 C309.29,254.47 310.85,251.48 313.73,245.17 C310.63,251.99 309.35,254.40 308.32,255.77 ZM 246.66 278.63 C247.89,278.93 269.54,278.96 297.76,278.73 C269.52,278.96 247.87,278.93 246.68,278.63 L 246.66 278.63 ZM 345.52 232.50 C344.64,233.13 343.50,235.04 341.99,238.37 C343.57,234.89 344.64,233.07 345.52,232.50 Z" fill="rgba(47,155,203,1)"/>
<path d="M 486.59 277.18 C487.45,278.83 488.38,279.95 488.66,279.67 C489.36,278.98 481.88,261.52 479.62,258.35 C479.74,258.41 479.84,258.48 479.91,258.55 C480.86,259.54 489.00,278.23 489.00,279.43 C489.00,279.81 488.61,279.88 488.13,279.58 C487.65,279.28 487.66,281.14 488.16,283.77 C488.95,287.97 488.74,289.09 486.27,293.77 C485.80,294.66 484.55,296.43 482.80,298.72 C482.77,298.25 479.13,301.65 474.55,306.44 C469.85,311.36 466.00,314.91 466.00,314.33 C466.00,312.91 458.66,310.19 452.59,309.36 C449.16,308.89 447.89,309.01 448.36,309.77 C448.73,310.37 448.67,311.09 448.23,311.36 C447.53,311.79 440.78,297.16 432.86,278.08 C431.62,275.10 430.45,273.15 430.25,273.74 C430.08,274.25 433.90,284.03 438.48,295.30 C437.73,293.51 436.97,291.69 436.20,289.86 C429.59,274.11 424.26,260.44 424.34,259.48 C424.49,257.86 422.62,257.75 397.50,257.93 C385.03,258.02 368.81,258.24 358.15,258.45 C360.16,258.29 361.44,258.09 361.57,257.88 C361.88,257.39 356.10,257.00 348.56,257.00 C341.10,257.00 335.00,257.40 335.00,257.88 C335.00,257.90 335.01,257.92 335.03,257.93 C333.20,257.07 334.18,255.35 336.38,252.17 C337.82,250.09 339.00,247.62 339.00,246.67 C339.00,245.73 340.34,241.99 341.99,238.37 C344.03,233.86 345.41,231.94 346.36,232.31 C347.12,232.60 349.83,233.15 352.37,233.53 C356.65,234.17 357.56,233.89 364.22,229.86 C371.18,225.66 374.84,223.99 381.72,221.90 C383.49,221.36 385.56,220.30 386.32,219.54 C387.08,218.77 389.34,217.47 391.34,216.63 C395.13,215.05 396.41,215.52 398.73,219.39 C399.15,220.09 402.01,221.85 405.09,223.29 C408.16,224.73 411.25,226.60 411.96,227.45 C412.67,228.30 414.29,229.00 415.57,229.00 C416.84,229.00 418.48,229.84 419.20,230.87 C420.29,232.42 432.11,238.00 434.32,238.00 C434.69,238.00 438.40,239.57 442.57,241.50 C446.74,243.43 450.47,245.00 450.87,245.00 C451.80,245.00 455.68,247.89 458.39,250.61 C459.55,251.77 461.62,253.07 463.00,253.50 C464.38,253.93 466.61,255.14 467.96,256.20 C469.70,257.55 471.70,258.05 474.71,257.86 C476.13,257.77 477.53,257.85 478.54,258.04 C478.70,258.54 479.01,259.35 479.50,260.50 C480.42,262.70 482.04,266.68 483.10,269.34 C484.17,272.00 485.74,275.53 486.59,277.18 ZM 242.89 174.19 C242.40,172.19 242.16,175.30 241.97,185.50 C241.81,193.75 241.49,198.93 241.26,197.02 C240.65,192.01 232.73,184.77 219.43,177.06 C213.42,173.58 207.38,169.72 206.00,168.48 C204.62,167.24 201.98,165.46 200.11,164.52 C198.25,163.58 195.71,161.72 194.48,160.38 C192.33,158.07 192.20,156.91 191.45,133.73 C191.04,121.01 190.40,111.53 189.99,111.88 C190.28,109.59 190.64,110.81 191.09,115.00 L 191.67 120.50 L 191.84 113.18 C192.04,103.91 192.96,102.90 201.24,102.77 C214.71,102.56 219.22,103.14 219.74,105.13 C220.06,106.32 221.13,107.00 222.72,107.00 C224.26,107.00 227.11,108.72 230.21,111.50 C232.96,113.97 235.84,116.00 236.61,116.00 C237.37,116.00 238.00,116.68 238.00,117.50 C238.00,118.32 238.39,119.00 238.87,119.00 C240.70,119.00 242.05,137.64 242.89,174.19 ZM 285.80 192.02 L 287.31 188.83 L 310.48 189.25 C323.22,189.48 334.17,189.98 334.80,190.38 C335.63,190.89 335.28,192.88 333.55,197.46 C332.23,200.96 331.37,204.03 331.62,204.29 C331.88,204.55 331.19,206.50 330.10,208.63 C329.05,210.65 326.78,215.58 324.91,219.84 C325.49,218.37 325.80,217.47 325.73,217.39 C325.54,217.21 323.41,221.09 320.99,226.03 C316.77,234.63 315.00,236.82 315.00,233.43 C315.00,232.56 313.85,229.89 312.44,227.49 C310.56,224.29 308.89,222.80 306.19,221.93 C304.16,221.27 302.04,220.38 301.49,219.94 C300.93,219.51 297.94,218.20 294.84,217.04 C290.97,215.59 288.21,213.71 286.02,211.03 C284.11,208.69 282.28,207.34 281.43,207.67 C280.52,208.01 281.26,205.49 283.51,200.55 C287.39,192.02 287.40,192.00 286.00,192.00 C285.93,192.00 285.86,192.01 285.80,192.02 ZM 154.52 177.91 L 150.21 174.28 C147.62,172.10 144.38,169.68 143.00,168.91 C141.62,168.13 139.77,166.92 138.88,166.21 C137.46,165.08 137.12,165.45 136.17,169.21 C136.07,169.62 135.95,170.04 135.81,170.46 C136.50,166.76 136.61,159.80 136.80,140.75 C137.02,119.38 136.75,112.30 139.19,111.20 C140.64,110.53 143.07,112.01 147.16,113.85 C151.23,115.67 154.01,117.64 154.92,119.35 C155.70,120.81 156.71,122.00 157.17,122.00 C158.36,122.00 158.18,161.27 156.95,169.00 C156.50,171.78 155.65,174.85 154.52,177.91 ZM 483.42 336.66 C483.14,335.93 483.04,331.78 483.21,327.45 L 483.50 319.58 L 489.94 318.28 C497.90,316.68 499.46,315.67 505.47,308.24 L 510.28 302.30 L 515.35 303.79 C518.15,304.61 521.61,306.45 523.05,307.89 C525.32,310.17 525.54,310.90 524.67,313.50 C522.06,321.41 514.29,329.99 506.43,333.63 C497.87,337.60 484.46,339.36 483.42,336.66 ZM 265.50 184.84 C259.23,181.39 258.17,174.16 263.10,168.53 C263.48,168.10 263.87,167.71 264.26,167.36 C263.65,168.05 263.07,168.92 262.48,170.00 C261.99,170.89 262.58,170.69 263.93,169.50 C265.18,168.40 267.84,166.98 269.85,166.35 L 272.89 165.40 C275.20,166.16 277.67,167.82 280.30,170.38 L 283.97 173.94 L 305.74 174.69 C329.77,175.51 328.88,176.02 300.00,178.01 L 282.51 179.21 L 279.32 182.09 C281.81,179.57 282.15,177.45 279.66,178.28 C279.02,178.50 278.00,178.00 277.40,177.18 C276.60,176.10 276.29,176.07 275.88,177.41 C276.20,174.99 275.79,172.19 274.80,171.20 C274.14,170.54 272.43,170.00 271.00,170.00 C267.56,170.00 266.00,171.72 266.00,175.50 C266.00,177.21 266.54,179.14 267.20,179.80 C268.64,181.24 272.68,181.34 274.53,180.30 C274.01,180.94 273.38,181.47 272.77,181.77 C271.32,182.47 271.05,182.89 272.03,182.93 C272.87,182.97 274.67,182.23 276.03,181.30 C278.27,179.75 278.38,179.75 277.16,181.26 C276.42,182.17 274.96,183.20 273.91,183.53 C272.86,183.86 272.00,184.55 272.00,185.07 C272.00,185.47 272.14,185.74 272.40,185.88 C270.02,186.34 267.62,186.01 265.50,184.84 ZM 360.83 278.25 C355.15,278.33 354.85,278.49 358.50,278.98 C361.25,279.34 337.62,279.47 306.00,279.26 C291.16,279.16 277.36,279.02 266.77,278.88 C279.38,278.87 296.78,278.76 315.64,278.55 C333.06,278.36 348.96,278.26 360.83,278.25 ZM 378.45 284.87 C379.04,283.77 379.47,282.91 379.68,282.36 C380.30,280.70 380.19,280.65 378.63,281.92 C377.12,283.14 376.93,283.14 377.19,281.92 C377.41,280.90 376.24,280.40 373.00,280.14 C369.50,279.86 368.94,279.60 370.50,278.96 C371.40,278.59 370.11,278.34 367.08,278.26 C376.40,278.28 382.00,278.38 382.00,278.55 C382.00,278.77 380.62,281.21 378.45,284.87 ZM 189.79 114.33 C189.45,123.96 189.17,161.90 189.13,206.00 C189.09,270.93 189.15,290.36 189.93,299.09 C189.14,290.36 189.06,271.01 189.03,206.88 C189.01,152.39 189.22,123.76 189.79,114.33 ZM 472.21 311.89 C464.29,321.42 455.85,331.00 454.99,331.00 C454.97,331.00 454.96,331.00 454.94,331.00 C455.68,330.83 464.65,320.75 472.21,311.89 ZM 129.50 181.68 C128.40,182.99 127.29,184.08 126.23,184.83 C124.58,186.01 121.13,187.87 118.56,188.97 L 117.56 189.40 L 120.38 188.06 C124.30,186.19 127.11,184.28 129.50,181.68 ZM 360.51 312.76 C363.27,308.92 366.90,303.53 370.26,298.31 C366.51,304.30 363.35,309.01 360.51,312.76 ZM 257.00 256.61 C257.00,256.60 257.00,256.59 257.00,256.58 C257.00,255.85 259.06,250.81 261.58,245.37 C261.89,244.72 262.22,244.00 262.57,243.23 C259.43,250.21 257.04,255.91 257.00,256.61 ZM 344.28 258.72 C339.77,258.75 336.99,258.61 335.50,258.12 C336.71,258.41 340.05,258.64 344.28,258.72 ZM 453.30 329.75 C452.78,329.06 451.42,326.25 450.28,323.50 C450.07,322.98 449.66,322.01 449.10,320.67 C451.17,325.43 452.74,328.86 453.32,329.75 C453.35,329.80 453.39,329.86 453.42,329.91 C453.38,329.86 453.34,329.80 453.30,329.75 ZM 267.88 165.24 C269.21,164.84 270.61,164.82 272.07,165.17 L 269.90 165.10 C269.16,165.08 268.49,165.12 267.88,165.24 ZM 347.26 325.26 C349.14,324.24 351.82,322.21 354.17,320.10 C351.84,322.35 349.61,323.98 347.26,325.26 ZM 265.41 237.02 C267.54,232.32 269.88,227.12 271.68,223.04 C272.36,221.51 273.04,219.98 273.71,218.47 C273.65,218.61 273.60,218.74 273.55,218.86 C272.38,221.61 268.90,229.38 265.41,237.02 ZM 244.07 277.98 L 244.00 277.96 L 243.98 267.81 L 244.07 277.98 ZM 144.54 197.40 C143.86,196.49 144.49,194.97 146.66,192.27 C147.66,191.03 148.95,189.12 150.14,187.20 C149.09,188.98 147.98,190.63 146.85,192.04 C144.54,194.91 143.86,196.49 144.54,197.40 ZM 308.22 255.90 L 306.32 258.46 L 306.22 258.46 L 308.22 255.90 ZM 280.21 204.07 C280.92,202.51 281.62,200.99 282.29,199.53 C281.73,200.78 281.12,202.13 280.47,203.52 C280.38,203.70 280.29,203.89 280.21,204.07 ZM 113.91 191.15 L 114.20 196.63 C114.41,200.66 114.56,202.06 116.53,203.24 C114.57,202.06 114.41,200.68 114.20,196.72 L 113.90 191.15 L 113.91 191.15 ZM 318.43 234.67 C317.51,236.76 316.68,238.65 315.91,240.36 C316.70,238.57 317.56,236.63 318.43,234.67 ZM 264.25 258.31 C260.59,258.11 258.48,257.80 257.56,257.30 C258.50,257.79 260.66,258.11 264.25,258.31 Z" fill="rgba(56,121,190,1)"/>
<path d="M 243.05 175.00 C242.58,172.37 242.12,190.82 241.94,219.50 C241.76,246.45 241.46,265.89 241.26,262.70 C240.82,255.71 238.44,252.47 232.59,250.89 C226.56,249.26 220.03,245.96 220.28,244.65 C220.40,244.02 218.05,242.26 215.06,240.75 C210.92,238.65 209.43,238.29 208.83,239.25 C208.27,240.13 208.03,239.95 208.02,238.64 C208.01,237.48 207.49,236.98 206.62,237.31 C205.86,237.61 204.67,237.32 203.98,236.67 C203.00,235.77 202.87,235.79 203.41,236.74 C203.87,237.57 203.59,237.78 202.54,237.38 C201.68,237.05 200.74,235.80 200.44,234.60 C200.14,233.41 199.13,232.37 198.20,232.30 C197.26,232.22 195.60,231.97 194.50,231.74 C192.54,231.32 192.49,230.25 191.89,176.41 C191.65,154.68 191.48,139.91 191.32,129.99 C191.37,131.20 191.41,132.45 191.45,133.73 C192.20,156.91 192.33,158.07 194.48,160.38 C195.71,161.72 198.25,163.58 200.11,164.52 C201.98,165.46 204.62,167.24 206.00,168.48 C207.38,169.72 213.42,173.58 219.43,177.06 C232.73,184.77 240.65,192.01 241.26,197.02 C241.49,198.93 241.81,193.75 241.97,185.50 C242.18,174.22 242.45,171.61 243.05,175.00 ZM 359.18 312.50 C356.84,315.83 356.95,316.82 358.70,315.22 C358.00,316.13 357.41,316.86 356.96,317.36 C354.33,320.23 349.97,323.79 347.26,325.26 C343.15,327.50 340.46,328.87 334.91,329.70 C336.09,329.27 335.90,329.15 334.50,329.05 C333.40,328.96 335.05,328.08 338.16,327.08 C345.67,324.68 351.18,321.21 350.80,319.14 C350.61,318.11 348.26,316.80 344.50,315.63 C336.41,313.11 322.97,307.92 320.48,306.35 C319.37,305.65 316.54,304.40 314.20,303.57 C308.43,301.53 282.12,287.25 279.00,284.45 C275.91,281.69 271.75,280.92 256.73,280.34 C249.74,280.07 245.19,279.50 245.54,278.94 C245.69,278.69 245.72,278.46 245.65,278.30 L 246.25 278.42 C247.49,278.67 274.38,279.05 306.00,279.26 C336.06,279.46 358.90,279.35 358.72,279.03 C365.17,279.91 367.84,279.96 369.99,279.20 C369.14,279.67 369.96,279.90 373.00,280.14 C376.24,280.40 377.41,280.90 377.19,281.92 C376.93,283.14 377.12,283.14 378.63,281.92 C380.19,280.65 380.30,280.70 379.68,282.36 C378.80,284.69 374.02,292.54 368.97,300.30 C373.90,292.34 379.22,283.46 379.57,282.36 C380.75,278.68 376.10,285.05 369.33,296.37 C365.68,302.49 361.11,309.75 359.18,312.50 ZM 325.26 217.95 C322.96,221.81 312.46,243.51 308.97,251.75 L 306.75 257.00 L 282.38 257.00 C265.37,257.00 258.00,256.67 258.00,255.90 C258.00,255.30 258.64,253.61 259.42,252.15 C262.46,246.50 275.08,219.41 282.15,203.70 C281.00,206.54 280.74,207.93 281.43,207.67 C282.28,207.34 284.11,208.69 286.02,211.03 C288.21,213.71 290.97,215.59 294.84,217.04 C297.94,218.20 300.93,219.51 301.49,219.94 C302.04,220.38 304.16,221.27 306.19,221.93 C308.89,222.80 310.56,224.29 312.44,227.49 C313.85,229.89 315.00,232.56 315.00,233.43 C315.00,236.82 316.77,234.63 320.99,226.03 C322.81,222.31 324.47,219.18 325.26,217.95 ZM 137.01 260.91 C136.50,223.12 136.40,222.31 134.21,218.21 C131.32,212.80 125.00,206.61 120.76,205.04 C114.69,202.79 114.51,202.57 114.20,196.63 L 113.90 190.97 L 118.56 188.97 C121.13,187.87 124.58,186.01 126.23,184.83 C130.08,182.09 134.78,174.71 136.17,169.21 C137.12,165.45 137.46,165.08 138.88,166.21 C139.77,166.92 141.62,168.13 143.00,168.91 C144.38,169.68 147.62,172.10 150.21,174.28 L 154.91 178.24 L 152.33 183.34 C150.91,186.14 148.36,190.16 146.66,192.27 C144.49,194.97 143.86,196.49 144.54,197.40 C149.76,204.45 153.31,210.49 155.17,215.50 C156.89,220.15 157.30,222.37 157.67,244.13 L 155.32 243.54 C153.89,243.19 151.31,241.82 149.59,240.50 C147.65,239.02 144.63,237.94 141.72,237.67 L 137.00 237.23 L 137.01 260.91 ZM 472.01 309.05 C469.93,311.38 467.67,313.99 465.35,316.75 C460.14,322.94 455.53,328.00 455.10,328.00 C454.67,328.00 453.04,324.74 451.47,320.75 C449.90,316.76 448.31,313.05 447.93,312.50 C447.62,312.06 444.95,306.08 441.59,298.39 C445.26,306.55 447.81,311.61 448.23,311.36 C448.67,311.09 448.73,310.37 448.36,309.77 C447.89,309.01 449.16,308.89 452.59,309.36 C458.66,310.19 466.00,312.91 466.00,314.33 C466.00,314.80 468.54,312.55 472.01,309.05 ZM 224.00 330.38 C248.21,330.92 309.90,330.91 328.61,330.33 C319.22,330.95 303.69,330.95 274.54,330.89 C253.92,330.85 234.97,330.65 224.00,330.38 ZM 168.22 336.91 C159.76,335.47 152.38,331.21 146.84,324.64 C152.47,331.09 160.08,335.52 168.23,336.91 C168.22,336.91 168.22,336.91 168.22,336.91 ZM 190.04 111.88 C190.03,111.92 190.01,111.96 190.00,112.00 C189.56,113.38 189.17,155.68 189.13,206.00 C189.17,155.68 189.53,113.38 189.94,112.00 C189.97,111.89 190.00,111.85 190.04,111.88 ZM 138.77 308.74 C139.58,312.75 140.75,315.55 142.41,318.44 C140.63,315.60 139.51,313.07 138.77,308.74 ZM 158.44 291.62 C158.78,303.67 159.26,306.03 160.41,308.34 C159.14,305.80 158.69,303.39 158.44,291.62 ZM 454.93 331.00 C455.42,331.00 462.10,323.58 468.81,315.85 C462.12,323.58 455.44,331.00 454.93,331.00 ZM 320.70 229.62 C323.58,223.24 325.79,217.84 325.71,217.39 C325.72,217.39 325.72,217.39 325.73,217.39 C325.92,217.58 323.65,223.08 320.70,229.62 ZM 433.67 280.02 C433.18,278.88 432.70,277.75 432.24,276.66 C432.44,277.10 432.65,277.58 432.86,278.08 C433.13,278.73 433.40,279.38 433.67,280.02 ZM 285.19 196.85 C285.77,195.52 286.23,194.44 286.54,193.67 C286.28,194.38 285.84,195.40 285.19,196.85 ZM 286.73 192.12 C286.54,192.04 286.29,192.00 286.00,192.00 C286.33,192.00 286.59,192.00 286.73,192.12 ZM 430.45 273.66 C430.36,273.62 430.29,273.65 430.25,273.75 C430.25,273.74 430.25,273.74 430.25,273.74 C430.29,273.63 430.36,273.61 430.45,273.66 Z" fill="rgba(67,84,175,1)"/>
<path d="M 191.73 308.32 C191.42,307.30 191.14,306.25 190.88,305.16 C189.20,298.04 189.07,291.06 189.13,206.00 C189.17,155.68 189.56,113.38 190.00,112.00 C191.09,108.59 191.17,111.28 191.89,176.41 C192.45,226.59 192.53,230.93 194.13,231.63 C192.32,231.27 192.28,233.07 191.64,268.84 C191.28,289.17 191.32,303.52 191.73,308.32 ZM 264.25 258.31 C259.22,258.03 257.00,257.52 257.00,256.63 C257.00,255.92 260.19,248.40 264.08,239.92 C267.98,231.44 272.23,221.96 273.55,218.86 C274.86,215.76 277.97,208.86 280.47,203.52 C282.96,198.18 285.00,193.41 285.00,192.91 C285.00,192.41 285.45,192.00 286.00,192.00 C286.55,192.00 287.00,192.17 287.00,192.37 C287.00,193.67 263.70,244.19 259.42,252.15 C258.64,253.61 258.00,255.30 258.00,255.90 C258.00,256.67 265.37,257.00 282.38,257.00 L 306.75 257.00 L 308.97 251.75 C312.84,242.62 325.31,216.98 325.70,217.36 C325.90,217.57 323.65,223.08 320.70,229.62 C317.75,236.15 314.25,244.09 312.92,247.25 C311.59,250.41 309.54,254.22 308.36,255.73 L 306.22 258.46 L 288.86 258.58 C279.31,258.65 268.24,258.53 264.25,258.31 ZM 249.12 279.83 L 242.50 279.50 L 241.60 268.09 C241.05,261.06 240.44,257.14 238.94,254.74 C240.33,256.62 241.04,259.19 241.26,262.70 C241.46,265.89 241.76,246.45 241.94,219.50 C242.12,190.82 242.58,172.37 243.05,175.00 C243.49,177.48 243.89,201.66 243.93,228.75 C243.98,262.70 244.33,278.00 245.06,278.00 C245.64,278.00 245.86,278.42 245.54,278.94 C245.34,279.25 246.68,279.57 249.12,279.83 ZM 214.33 329.96 C207.80,328.67 202.69,325.99 198.81,321.70 C201.28,324.19 204.30,326.23 207.86,327.83 C211.24,329.34 217.30,329.47 271.55,329.23 C315.60,329.02 330.14,328.93 337.91,327.16 C334.96,328.12 333.43,328.96 334.50,329.05 C336.19,329.18 336.11,329.32 334.00,330.00 C330.69,331.06 219.70,331.02 214.33,329.96 ZM 453.32 329.75 C450.91,326.01 429.86,274.93 430.24,273.78 C430.43,273.21 431.32,274.49 432.22,276.62 C438.43,291.28 447.35,311.67 447.93,312.50 C448.31,313.05 449.90,316.76 451.47,320.75 C453.04,324.74 454.67,328.00 455.10,328.00 C455.53,328.00 460.14,322.94 465.35,316.75 C475.03,305.24 483.55,296.50 482.87,298.77 C482.34,300.53 455.92,331.00 454.93,331.00 C454.48,331.00 453.76,330.44 453.32,329.75 ZM 359.18 312.50 C361.11,309.75 365.68,302.49 369.33,296.37 C376.10,285.05 380.75,278.68 379.57,282.36 C378.95,284.29 362.94,310.35 360.74,313.00 C357.25,317.21 356.12,316.85 359.18,312.50 ZM 272.00 185.07 C272.00,184.55 272.86,183.86 273.91,183.53 C274.96,183.20 276.42,182.17 277.16,181.26 C278.38,179.75 278.27,179.75 276.03,181.30 C274.67,182.23 272.87,182.97 272.03,182.93 C271.05,182.89 271.32,182.47 272.77,181.77 C274.02,181.17 275.33,179.55 275.67,178.18 C276.20,176.08 276.47,175.92 277.40,177.18 C278.00,178.00 279.02,178.50 279.66,178.28 C282.41,177.36 281.71,180.05 278.46,182.90 C275.01,185.93 272.00,186.94 272.00,185.07 ZM 335.00 257.88 C335.00,257.40 341.10,257.00 348.56,257.00 C356.10,257.00 361.88,257.39 361.57,257.88 C361.28,258.36 355.17,258.76 348.02,258.76 C340.86,258.76 335.00,258.36 335.00,257.88 ZM 486.59 277.18 C485.74,275.53 484.17,272.00 483.10,269.34 C482.04,266.68 480.42,262.70 479.50,260.50 C478.11,257.19 478.09,256.76 479.33,258.00 C481.15,259.82 489.39,278.94 488.66,279.67 C488.38,279.95 487.45,278.83 486.59,277.18 ZM 358.50 279.00 C354.36,278.43 355.14,278.30 363.00,278.23 C369.11,278.17 371.79,278.45 370.50,279.00 C368.22,279.98 365.63,279.98 358.50,279.00 ZM 262.48 170.00 C264.54,166.25 266.43,165.00 269.90,165.10 L 273.50 165.21 L 269.85 166.35 C267.84,166.98 265.18,168.40 263.93,169.50 C262.58,170.69 261.99,170.89 262.48,170.00 ZM 350.68 319.97 C350.92,319.24 350.62,318.58 349.78,317.93 C350.38,318.36 350.73,318.76 350.80,319.14 C350.85,319.39 350.81,319.67 350.68,319.97 ZM 195.49 231.93 C196.44,232.10 197.51,232.24 198.20,232.30 C199.03,232.36 199.92,233.20 200.32,234.23 C199.92,233.20 199.03,232.37 198.20,232.32 C197.53,232.28 196.46,232.12 195.49,231.93 ZM 275.72 282.48 C274.03,281.84 271.76,281.39 268.31,281.03 C271.70,281.37 273.99,281.82 275.72,282.48 ZM 345.60 324.04 C345.99,323.82 346.39,323.59 346.81,323.34 C347.34,323.04 347.82,322.74 348.25,322.45 C347.50,322.97 346.61,323.51 345.60,324.04 Z" fill="rgba(103,127,197,1)"/>
<path d="M 168.23 336.91 C157.78,335.13 148.21,328.34 142.57,318.72 C137.82,310.61 137.04,303.55 137.02,268.86 L 137.00 237.23 L 141.72 237.67 C144.63,237.94 147.65,239.02 149.59,240.50 C151.31,241.82 153.89,243.19 155.32,243.54 L 157.92 244.20 L 158.21 274.35 C158.47,301.64 158.68,304.86 160.41,308.34 C162.70,312.96 168.30,316.89 173.61,317.60 C182.79,318.84 182.11,317.96 181.79,328.28 L 181.50 337.50 L 177.50 337.66 C175.30,337.74 171.13,337.41 168.23,336.91 ZM 207.86 327.83 C199.69,324.17 194.35,318.13 191.94,309.83 C191.34,307.76 191.23,292.27 191.64,268.84 C192.32,231.29 192.32,231.18 194.41,231.69 C195.56,231.98 197.26,232.26 198.20,232.32 C199.13,232.38 200.14,233.41 200.44,234.60 C200.74,235.80 201.68,237.05 202.54,237.38 C203.59,237.78 203.87,237.57 203.41,236.74 C202.87,235.79 203.00,235.77 203.98,236.67 C204.67,237.32 205.86,237.61 206.62,237.31 C207.49,236.98 208.01,237.48 208.02,238.64 C208.03,239.95 208.27,240.13 208.83,239.25 C209.43,238.29 210.92,238.65 215.06,240.75 C218.05,242.26 220.40,244.02 220.28,244.65 C220.03,245.96 226.56,249.26 232.59,250.89 C239.35,252.71 240.58,255.04 241.60,268.09 L 242.50 279.50 L 255.50 280.15 C272.05,280.99 275.91,281.69 279.00,284.45 C282.12,287.25 308.43,301.53 314.20,303.57 C316.54,304.40 319.37,305.65 320.48,306.35 C322.97,307.92 336.41,313.11 344.50,315.63 C352.09,317.99 352.67,319.94 346.81,323.34 C337.29,328.86 336.44,328.93 271.55,329.23 C217.30,329.47 211.24,329.34 207.86,327.83 Z" fill="rgba(81,51,164,1)"/>
</g>
</svg>